<svg xmlns="http://www.w3.org/2000/svg" width="44" height="44" fill="none"><path fill="#232D3F" d="M0 4a4 4 0 0 1 4-4h36a4 4 0 0 1 4 4v36a4 4 0 0 1-4 4H4a4 4 0 0 1-4-4V4Z"/><path fill="#F5F7FA" d="M24.438 12.833a5.012 5.012 0 0 0-5.012 5.013v2.79h-2.682a.244.244 0 0 0-.244.244v3.685c0 .134.108.244.244.244h2.682v7.559c0 .134.109.244.244.244h3.685a.243.243 0 0 0 .244-.244v-7.56h2.706c.111 0 .209-.075.236-.183l.921-3.685a.243.243 0 0 0-.236-.304h-3.627v-2.79a.839.839 0 0 1 .84-.84h2.817a.244.244 0 0 0 .244-.244v-3.685a.244.244 0 0 0-.244-.244h-2.818Z"/><path stroke="#F5F7FA" stroke-width="1.833" d="M36.666 22c0 8.1-6.566 14.667-14.666 14.667C13.9 36.667 7.333 30.1 7.333 22S13.899 7.333 22 7.333c8.1 0 14.666 6.567 14.666 14.667Z"/></svg>