<svg xmlns="http://www.w3.org/2000/svg" width="44" height="44" fill="none"><path fill="#232D3F" d="M0 4a4 4 0 0 1 4-4h36a4 4 0 0 1 4 4v36a4 4 0 0 1-4 4H4a4 4 0 0 1-4-4V4Z"/><path stroke="#F5F7FA" stroke-linecap="round" stroke-linejoin="round" stroke-width="1.833" d="M29.663 15.192a.54.54 0 0 1 0-1.081m0 1.081a.54.54 0 0 0 0-1.081"/><path stroke="#F5F7FA" stroke-linecap="round" stroke-linejoin="round" stroke-width="1.833" d="M9.17 14.732a5.565 5.565 0 0 1 5.564-5.565h14.841a5.565 5.565 0 0 1 5.565 5.565v14.84a5.565 5.565 0 0 1-5.565 5.566H14.732a5.565 5.565 0 0 1-5.565-5.565V14.729l.002.003Z"/><path stroke="#F5F7FA" stroke-linecap="round" stroke-linejoin="round" stroke-width="1.833" d="M16.64 22.152a5.515 5.515 0 1 0 11.03 0 5.515 5.515 0 0 0-11.03 0Z"/></svg>