<svg xmlns="http://www.w3.org/2000/svg" width="44" height="44" fill="none"><path fill="#232D3F" d="M0 4a4 4 0 0 1 4-4h36a4 4 0 0 1 4 4v36a4 4 0 0 1-4 4H4a4 4 0 0 1-4-4V4Z"/><path fill="#F5F7FA" d="M22.155 12.833c-3.77 0-7.488 2.514-7.488 6.572 0 2.58 1.453 4.058 2.33 4.058.367 0 .576-1.008.576-1.296 0-.34-.864-1.073-.864-2.487 0-2.959 2.252-5.04 5.158-5.04 2.5 0 4.346 1.427 4.346 4.032 0 1.95-.785 5.603-3.312 5.603-.916 0-1.701-.654-1.701-1.61 0-1.388.968-2.736.968-4.163 0-2.435-3.443-1.99-3.443.943 0 .615.079 1.296.354 1.858-.51 2.187-1.545 5.433-1.545 7.685 0 .694.105 1.375.17 2.068.131.144.066.131.249.053 1.846-2.54 1.78-3.024 2.618-6.35.458.864 1.623 1.323 2.54 1.323 3.901 0 5.655-3.797 5.655-7.227 0-3.652-3.155-6.022-6.61-6.022Z"/><circle cx="22" cy="22" r="14.667" stroke="#F5F7FA" stroke-width="1.833"/></svg>