<svg width="44" height="44" viewBox="0 0 44 44" fill="none" xmlns="http://www.w3.org/2000/svg">
<path d="M14.6296 29.7335C14.2819 29.3782 14.2819 28.8021 14.6296 28.4468L28.4801 14.2933C28.8278 13.938 29.3915 13.938 29.7392 14.2933C30.0869 14.6486 30.0869 15.2246 29.7392 15.58L15.8887 29.7335C15.541 30.0888 14.9773 30.0888 14.6296 29.7335Z" fill="#F5F7FA"/>
<path d="M14.2608 14.2665C14.6085 13.9112 15.1722 13.9112 15.5199 14.2665L29.3704 28.42C29.7181 28.7754 29.7181 29.3514 29.3704 29.7067C29.0227 30.062 28.459 30.062 28.1113 29.7067L14.2608 15.5532C13.9131 15.1979 13.9131 14.6218 14.2608 14.2665Z" fill="#F5F7FA"/>
</svg>
