<svg width="291" height="88" viewBox="0 0 291 88" fill="none" xmlns="http://www.w3.org/2000/svg">
<path d="M25.9403 24.4357C33.2363 24.4357 39.463 26.5292 44.6204 30.7162C49.8198 34.9032 52.4195 39.8015 52.4195 45.4112C52.4195 51.021 50.6584 55.4518 47.1363 58.7038C43.6141 61.9559 39.1485 63.5412 33.7394 63.4599C30.8462 63.4193 28.54 63.3989 26.8209 63.3989H23.8648C22.6488 63.3989 22.0408 62.9518 22.0408 62.0575C22.0408 61.7323 22.3972 60.899 23.11 59.5575C25.4581 55.0047 27.2402 50.3502 28.4562 45.5942C24.1373 45.5942 20.091 44.4356 16.3173 42.1186C12.5435 39.8015 10.6566 37.1796 10.6566 34.2528C10.6566 31.2853 12.0823 28.9073 14.9335 27.1186C17.7848 25.33 21.4538 24.4357 25.9403 24.4357ZM25.6887 26.9357C22.9213 26.9357 20.7409 27.5048 19.1476 28.643C17.5542 29.7812 16.7575 31.4682 16.7575 33.704C16.7575 35.8991 17.8477 37.8706 20.0281 39.6186C22.2504 41.3259 25.2065 42.4031 28.8964 42.8503C30.1963 37.5251 30.951 34.0902 31.1607 32.5454L34.9345 32.9113C34.9345 35.4316 34.3894 38.7649 33.2992 42.9112C33.6346 42.9112 35.5844 42.708 39.1485 42.3015L39.463 44.3137C38.6243 44.5982 36.2972 45.0251 32.4815 45.5942C30.8462 50.7161 29.148 55.147 27.3869 58.8868C31.58 59.212 35.0602 59.3746 37.8277 59.3746C40.637 59.3746 42.8593 58.3786 44.4946 56.3868C46.1299 54.3543 46.9476 51.6307 46.9476 48.2161C46.9476 42.3218 44.872 37.3015 40.7209 33.1552C36.5697 29.0089 31.559 26.9357 25.6887 26.9357Z" fill="#F5F7FA"/>
<path d="M71.9261 56.1429L73.3727 57.2404C72.0729 58.9884 70.2908 60.4518 68.0266 61.6307C65.7623 62.7689 63.561 63.338 61.4225 63.338C59.284 63.338 57.5649 62.7282 56.265 61.5087C54.9652 60.2892 54.3152 58.6835 54.3152 56.6917C54.3152 52.9518 56.3489 49.273 60.4162 45.6551C64.5254 42.0373 68.6765 40.2283 72.8695 40.2283C75.637 40.2283 77.0207 41.2852 77.0207 43.399C77.0207 45.5942 75.5531 47.8096 72.618 50.0454C69.7248 52.2811 65.6365 54.3136 60.3533 56.1429C60.7306 57.0778 61.3177 57.8095 62.1143 58.338C62.911 58.8664 63.7287 59.1307 64.5673 59.1307C66.3703 59.1307 68.8232 58.1347 71.9261 56.1429ZM60.0388 54.3136C63.4352 53.1754 66.3493 51.7527 68.7813 50.0454C71.2133 48.338 72.4293 46.773 72.4293 45.3503C72.4293 44.8218 72.2196 44.3543 71.8003 43.9478C71.381 43.5413 70.8988 43.3381 70.3537 43.3381C68.383 43.3381 66.2445 44.5373 63.9383 46.9356C61.6741 49.2933 60.3742 51.7527 60.0388 54.3136Z" fill="#F5F7FA"/>
<path d="M133.862 63.3975H85.4068V24.7057H91.9585V57.9721H106.345V24.7057H112.924V57.9721H127.31V24.7057H133.862V63.3975Z" fill="#F5F7FA"/>
<path d="M156.589 63.3975H150.011V30.1045H138.327V24.7057H168.246V30.1045H156.589V63.3975Z" fill="#F5F7FA"/>
<path d="M208.117 43.9986C208.117 46.9804 207.726 49.6974 206.943 52.1498C206.179 54.5846 205.023 56.6842 203.476 58.4485C201.93 60.1952 199.991 61.5449 197.662 62.4977C195.332 63.4504 192.603 63.9268 189.472 63.9268C186.287 63.9268 183.521 63.4504 181.174 62.4977C178.844 61.5449 176.906 60.1864 175.359 58.422C173.83 56.6577 172.684 54.5493 171.919 52.0969C171.155 49.6445 170.773 46.9274 170.773 43.9457C170.773 39.9583 171.446 36.4826 172.793 33.5185C174.158 30.5368 176.223 28.2255 178.99 26.5847C181.774 24.9262 185.286 24.097 189.527 24.097C193.676 24.097 197.125 24.9174 199.873 26.5582C202.621 28.1991 204.678 30.5103 206.043 33.492C207.426 36.4561 208.117 39.9583 208.117 43.9986ZM177.652 43.9986C177.652 46.9804 178.071 49.5651 178.908 51.7529C179.745 53.923 181.028 55.5991 182.757 56.7812C184.504 57.9457 186.742 58.5279 189.472 58.5279C192.22 58.5279 194.459 57.9457 196.188 56.7812C197.917 55.5991 199.191 53.923 200.01 51.7529C200.828 49.5651 201.238 46.9804 201.238 43.9986C201.238 39.4643 200.301 35.918 198.426 33.3597C196.57 30.7838 193.603 29.4958 189.527 29.4958C186.797 29.4958 184.549 30.0781 182.784 31.2425C181.037 32.407 179.745 34.0743 178.908 36.2444C178.071 38.3969 177.652 40.9816 177.652 43.9986Z" fill="#F5F7FA"/>
<path d="M226.614 24.7057C231.764 24.7057 235.522 25.729 237.888 27.7756C240.254 29.8222 241.437 32.6893 241.437 36.3767C241.437 38.0528 241.164 39.6496 240.618 41.1669C240.09 42.6666 239.216 43.9986 237.997 45.1631C236.778 46.3099 235.167 47.2185 233.165 47.889C231.182 48.5594 228.734 48.8947 225.822 48.8947H221.563V63.3975H215.012V24.7057H226.614ZM226.177 29.9722H221.563V43.6017H225.14C227.196 43.6017 228.943 43.3723 230.381 42.9136C231.819 42.4372 232.911 41.6874 233.657 40.6641C234.403 39.6407 234.776 38.291 234.776 36.6149C234.776 34.3742 234.075 32.7069 232.674 31.613C231.291 30.5191 229.125 29.9722 226.177 29.9722Z" fill="#F5F7FA"/>
<path d="M247.758 24.7057H253.736V45.216C253.736 46.0982 253.727 47.0686 253.709 48.1272C253.691 49.1858 253.655 50.2179 253.6 51.2236C253.564 52.2292 253.527 53.1291 253.491 53.923C253.454 54.6993 253.418 55.2639 253.382 55.6168H253.573L273.883 24.7057H281.499V63.3975H275.575V43.0459C275.575 42.0932 275.593 41.061 275.63 39.9495C275.666 38.838 275.712 37.7617 275.766 36.7208C275.821 35.6798 275.876 34.7624 275.93 33.9684C275.985 33.1745 276.021 32.6099 276.039 32.2747H275.794L255.429 63.3975H247.758V24.7057Z" fill="#F5F7FA"/>
</svg>
