<svg width="544" height="80" viewBox="0 0 544 80" fill="none" xmlns="http://www.w3.org/2000/svg">
<path d="M30.6981 0.680399C45.3523 0.680399 57.8589 4.88526 68.2179 13.295C78.6612 21.7047 83.8828 31.5433 83.8828 42.8107C83.8828 54.0781 80.3456 62.9777 73.2711 69.5095C66.1967 76.0414 57.2273 79.2256 46.3629 79.0623C40.5518 78.9807 35.9197 78.9398 32.4667 78.9398H26.5292C24.0868 78.9398 22.8656 78.0417 22.8656 76.2455C22.8656 75.5923 23.5815 73.9185 25.0132 71.2241C29.7295 62.0796 33.3089 52.7309 35.7512 43.1781C27.0766 43.1781 18.9494 40.8511 11.3697 36.1972C3.78988 31.5433 0 26.277 0 20.3983C0 14.4381 2.86347 9.66166 8.59041 6.06915C14.3173 2.47665 21.6866 0.680399 30.6981 0.680399ZM30.1927 5.70174C24.6343 5.70174 20.2548 6.84481 17.0545 9.13095C13.8541 11.4171 12.254 14.8055 12.254 19.2961C12.254 23.7051 14.4437 27.665 18.8231 31.1759C23.2867 34.6051 29.2242 36.7687 36.6356 37.6669C39.2464 26.971 40.7623 20.0718 41.1834 16.9691L48.7632 17.704C48.7632 22.7661 47.6683 29.4613 45.4786 37.7893C46.1524 37.7893 50.0686 37.3811 57.2273 36.5646L57.8589 40.6062C56.1745 41.1777 51.5003 42.035 43.8363 43.1781C40.5518 53.4657 37.1409 62.3653 33.6036 69.8769C42.0256 70.5301 49.0158 70.8567 54.5743 70.8567C60.2171 70.8567 64.6807 68.8563 67.9653 64.8556C71.2498 60.7732 72.8921 55.3028 72.8921 48.4444C72.8921 36.6054 68.7232 26.5219 60.3855 18.1939C52.0478 9.86578 41.9835 5.70174 30.1927 5.70174Z" fill="#F5F7FA"/>
<path d="M123.063 64.3657L125.968 66.5702C123.357 70.0811 119.778 73.0204 115.23 75.3882C110.682 77.6743 106.261 78.8174 101.966 78.8174C97.6705 78.8174 94.2175 77.5927 91.6066 75.1432C88.9958 72.6938 87.6904 69.4687 87.6904 65.468C87.6904 57.9564 91.7751 50.5672 99.9444 43.3006C108.198 36.0339 116.536 32.4006 124.958 32.4006C130.516 32.4006 133.295 34.5234 133.295 38.7691C133.295 43.1781 130.348 47.6279 124.452 52.1185C118.641 56.6092 110.43 60.6916 99.8181 64.3657C100.576 66.2436 101.755 67.7133 103.355 68.7747C104.955 69.8361 106.598 70.3668 108.282 70.3668C111.904 70.3668 116.83 68.3665 123.063 64.3657ZM99.1864 60.6916C106.008 58.4054 111.861 55.5477 116.746 52.1185C121.631 48.6893 124.073 45.5459 124.073 42.6882C124.073 41.6268 123.652 40.6878 122.81 39.8714C121.968 39.0549 120.999 38.6466 119.904 38.6466C115.946 38.6466 111.651 41.0553 107.019 45.8725C102.471 50.6081 99.8602 55.5477 99.1864 60.6916Z" fill="#F5F7FA"/>
<path d="M247.463 78.9369H150.139V1.22259H163.299V68.0399H192.194V1.22259H205.408V68.0399H234.304V1.22259H247.463V78.9369Z" fill="#F5F7FA"/>
<path d="M293.113 78.9369H279.899V12.0664H256.432V1.22259H316.526V12.0664H293.113V78.9369Z" fill="#F5F7FA"/>
<path d="M396.609 39.9734C396.609 45.9623 395.823 51.4197 394.251 56.3455C392.716 61.2359 390.395 65.4529 387.288 68.9967C384.181 72.505 380.288 75.2159 375.609 77.1296C370.93 79.0432 365.447 80 359.16 80C352.763 80 347.207 79.0432 342.491 77.1296C337.812 75.2159 333.919 72.4873 330.812 68.9435C327.742 65.3998 325.439 61.165 323.904 56.2392C322.368 51.3134 321.601 45.856 321.601 39.8671C321.601 31.8582 322.953 24.8771 325.658 18.9236C328.4 12.9347 332.549 8.29236 338.105 4.99668C343.698 1.66556 350.752 0 359.269 0C367.604 0 374.531 1.64784 380.05 4.94352C385.57 8.2392 389.7 12.8815 392.442 18.8704C395.22 24.8239 396.609 31.8582 396.609 39.9734ZM335.418 39.9734C335.418 45.9623 336.259 51.1539 337.94 55.5482C339.622 59.907 342.199 63.2735 345.671 65.6478C349.181 67.9867 353.677 69.1561 359.16 69.1561C364.679 69.1561 369.176 67.9867 372.648 65.6478C376.121 63.2735 378.679 59.907 380.324 55.5482C381.969 51.1539 382.792 45.9623 382.792 39.9734C382.792 30.866 380.909 23.7431 377.144 18.6047C373.416 13.4308 367.457 10.8439 359.269 10.8439C353.786 10.8439 349.272 12.0133 345.726 14.3522C342.217 16.691 339.622 20.0399 337.94 24.3987C336.259 28.722 335.418 33.9136 335.418 39.9734Z" fill="#F5F7FA"/>
<path d="M433.76 1.22259C444.105 1.22259 451.653 3.27796 456.405 7.3887C461.157 11.4994 463.533 17.258 463.533 24.6645C463.533 28.031 462.985 31.2381 461.888 34.2857C460.828 37.2979 459.073 39.9734 456.624 42.3123C454.175 44.6157 450.94 46.4408 446.919 47.7874C442.935 49.134 438.018 49.8073 432.17 49.8073H423.616V78.9369H410.457V1.22259H433.76ZM432.883 11.8007H423.616V39.1761H430.799C434.93 39.1761 438.439 38.7154 441.327 37.794C444.214 36.8372 446.408 35.3311 447.906 33.2757C449.405 31.2204 450.154 28.5094 450.154 25.1429C450.154 20.6423 448.747 17.2935 445.932 15.0963C443.154 12.8992 438.804 11.8007 432.883 11.8007Z" fill="#F5F7FA"/>
<path d="M476.229 1.22259H488.237V42.4186C488.237 44.1905 488.219 46.1395 488.183 48.2658C488.146 50.392 488.073 52.4651 487.963 54.485C487.89 56.505 487.817 58.3123 487.744 59.907C487.671 61.4662 487.598 62.6002 487.525 63.309H487.908L528.702 1.22259H544V78.9369H532.102V38.0598C532.102 36.1462 532.138 34.0731 532.211 31.8405C532.285 29.608 532.376 27.4463 532.486 25.3555C532.595 23.2647 532.705 21.4219 532.815 19.8272C532.924 18.2326 532.997 17.0986 533.034 16.4252H532.54L491.637 78.9369H476.229V1.22259Z" fill="#F5F7FA"/>
</svg>
